<svg width="1920" height="1080" viewBox="0 0 1920 1080" fill="none" xmlns="http://www.w3.org/2000/svg">
<g clip-path="url(#clip0_29_230)">
<rect width="1920" height="1080" fill="#F8EBA5"/>
<path d="M1915.62 396.384V1073.71L580.041 1093.95L1915.62 396.384Z" fill="#AAC0A4"/>
<path d="M517.882 1090.5L1968.26 341.132" stroke="#AAC0A4" stroke-width="10"/>
<path d="M84.7488 286.96C89.8521 280.671 95.7088 275.188 102.319 270.511C109.015 265.666 115.912 262.088 123.012 259.776C123.899 259.487 124.871 259.241 125.926 259.037C127.067 258.666 128.673 258.213 130.743 257.679L146.829 409.773L119.444 418.691L104.969 280.586C97.5037 286.943 92.6452 294.415 90.3931 303.001C88.141 311.587 88.6252 320.824 91.8455 330.713C92.6299 333.122 93.4379 335.172 94.2695 336.865C95.2278 338.516 96.3557 340.041 97.6531 341.442C98.0718 341.866 98.3224 342.205 98.405 342.459C98.5731 342.544 98.6778 342.651 98.719 342.777C91.6193 345.089 85.9466 345.324 81.7007 343.482C77.5403 341.471 74.428 337.296 72.3637 330.957C70.2994 324.618 70.3269 317.598 72.4464 309.897C74.6926 302.154 78.7934 294.508 84.7488 286.96ZM212.467 365.892C211.724 363.61 211.048 360.675 210.441 357.087C209.96 353.457 209.389 347.613 208.728 339.555C208.15 331.751 207.598 326.181 207.073 322.846C206.548 319.512 205.934 316.767 205.233 314.612C204.2 311.442 202.845 309.219 201.168 307.943C199.49 306.666 197.51 306.399 195.228 307.142C192.185 308.133 189.849 310.647 188.219 314.683C186.674 318.552 185.965 323.48 186.092 329.469L193.04 394.724L165.655 403.642L154.849 301.993L182.233 293.075L183.362 303.645C185.375 299.063 187.931 295.286 191.03 292.313C194.129 289.341 197.833 287.153 202.144 285.75C208.863 283.561 214.66 283.707 219.534 286.186C224.408 288.666 227.98 293.392 230.251 300.365C231.2 303.281 231.955 306.891 232.516 311.196C233.162 315.332 233.812 321.851 234.467 330.752C234.925 337.755 235.333 342.67 235.693 345.498C236.053 348.325 236.522 350.626 237.1 352.401C237.967 355.064 239.262 356.886 240.984 357.867C242.664 358.722 244.772 358.737 247.308 357.911C250.478 356.879 252.852 354.914 254.433 352.015C256.013 349.117 257.146 343.77 257.833 335.974L265.82 333.373C265.602 346.485 263.527 356.906 259.595 364.637C255.789 372.327 249.892 377.472 241.905 380.073C234.805 382.386 228.671 382.28 223.502 379.756C218.292 377.106 214.614 372.484 212.467 365.892ZM316.781 319.302C317.277 320.823 317.647 322.175 317.892 323.357C318.136 324.539 318.297 325.679 318.374 326.776C320.414 324.429 322.37 322.039 324.242 319.606C326.114 317.174 327.69 314.908 328.97 312.808L336.957 310.207C334.513 316.051 331.522 321.723 327.984 327.222C324.532 332.553 320.405 337.963 315.602 343.454C313.376 348.245 309.931 352.522 305.267 356.285C300.561 359.92 295.293 362.688 289.461 364.587C280.967 367.353 273.441 367.28 266.883 364.367C260.411 361.286 256.04 356.26 253.769 349.287C252.489 345.357 252.284 341.497 253.154 337.708C253.982 333.793 255.627 330.663 258.089 328.319C259.881 319.181 261.191 309.64 262.019 299.695C262.932 289.582 263.309 277.82 263.149 264.411L290.055 251.442C293.532 260.827 296.804 269.367 299.871 277.062C302.938 284.757 306.358 293.108 310.133 302.115C312.247 307.316 313.719 310.974 314.547 313.088C315.376 315.202 316.121 317.273 316.781 319.302ZM270.978 284.578C271.023 290.312 270.769 296.425 270.218 302.914C269.753 309.236 268.773 316.776 267.279 325.536C268.88 325.716 270.246 326.252 271.379 327.146C272.511 328.039 273.325 329.246 273.82 330.768C274.605 333.177 274.482 335.6 273.454 338.039C272.425 340.477 270.769 342.068 268.487 342.811C267.219 343.224 266.08 343.385 265.069 343.293C264.016 343.075 263.176 342.648 262.548 342.011C264.075 346.702 266.077 349.836 268.554 351.413C271.116 352.822 274.426 352.866 278.483 351.545C283.681 349.852 287.243 347.01 289.168 343.018C291.093 339.025 291.126 334.177 289.268 328.471C288.69 326.697 288.049 324.942 287.344 323.209C286.598 321.348 285.333 318.325 283.549 314.138C280.975 308.386 278.754 303.289 276.888 298.849C275.021 294.409 273.051 289.652 270.978 284.578ZM386.963 243.862C388.367 248.173 388.531 251.905 387.455 255.06C386.464 258.047 384.448 260.036 381.405 261.027C380.391 261.357 379.251 261.518 377.986 261.509C376.722 261.5 375.395 261.302 374.006 260.912C374.106 258.636 374.037 256.485 373.798 254.46C373.559 252.434 373.171 250.597 372.634 248.949C371.808 246.414 370.745 244.656 369.445 243.678C368.103 242.572 366.545 242.308 364.77 242.886C359.192 244.703 355.846 252.944 354.732 267.61C353.578 282.148 354.879 295.186 358.636 306.723C360.535 312.555 362.827 316.366 365.514 318.155C368.327 319.904 372.332 319.931 377.53 318.239C383.489 316.298 388.507 313.192 392.584 308.919C396.747 304.479 400.864 297.529 404.935 288.07L411.401 285.964C407.929 300.276 402.832 311.752 396.11 320.391C389.347 328.904 380.83 334.832 370.561 338.176C360.799 341.355 352.557 341.235 345.834 337.815C339.238 334.354 334.309 327.616 331.048 317.6C328.695 310.374 327.274 302.353 326.787 293.537C326.427 284.68 327.18 276.442 329.046 268.823C331.259 259.689 334.98 252.167 340.207 246.258C345.52 240.181 352.17 235.842 360.157 233.241C367.13 230.97 372.887 230.778 377.427 232.665C381.927 234.425 385.105 238.157 386.963 243.862ZM436.139 315.559L408.754 324.477L397.948 222.827L425.332 213.909L426.699 226.505C430.75 219.998 434.113 215.467 436.787 212.914C439.546 210.192 442.574 208.294 445.87 207.221C449.801 205.941 453.424 206.304 456.741 208.308C460.017 210.186 462.316 213.154 463.637 217.211C464.917 221.141 464.722 224.85 463.054 228.338C461.385 231.826 458.522 234.231 454.465 235.552C452.31 236.254 450.434 236.304 448.835 235.703C447.364 235.06 445.859 233.237 444.32 230.232C443.279 228.328 442.422 227.204 441.75 226.862C441.036 226.394 440.236 226.304 439.348 226.593C437.193 227.295 435.309 228.399 433.696 229.906C432.084 231.412 430.125 234.224 427.819 238.34L436.139 315.559ZM497.108 162.56C498.471 166.744 498.105 170.79 496.012 174.696C494.046 178.562 490.971 181.176 486.787 182.538C482.603 183.901 478.579 183.599 474.713 181.632C470.848 179.666 468.234 176.591 466.871 172.407C465.509 168.223 465.811 164.199 467.777 160.333C469.702 156.341 472.756 153.664 476.94 152.301C481.124 150.939 485.169 151.304 489.076 153.397C493.068 155.322 495.746 158.377 497.108 162.56ZM480.756 277.051C480.219 275.403 479.747 273.523 479.34 271.412C478.892 269.174 478.529 266.768 478.252 264.194L471.304 198.938L498.689 190.021L506.052 259.138C506.17 260.361 506.331 261.501 506.535 262.556C506.697 263.485 506.943 264.456 507.273 265.471C508.099 268.006 509.268 269.659 510.781 270.428C512.379 271.03 514.573 270.876 517.362 269.968C520.912 268.812 523.776 266.196 525.955 262.122C528.092 257.92 529.116 253.099 529.027 247.659L537.015 245.058C536.715 257.916 534.112 268.44 529.206 276.628C524.3 284.816 517.41 290.355 508.536 293.245C502.197 295.309 496.549 294.975 491.592 292.242C486.721 289.341 483.109 284.277 480.756 277.051ZM557.938 254.02C558.899 255.249 560.138 256.038 561.653 256.386C563.169 256.733 564.814 256.618 566.589 256.04C574.576 253.439 579.306 246.22 580.78 234.382C582.38 222.502 580.972 209.78 576.554 196.214C574.861 191.016 572.821 187.334 570.432 185.167C568.044 183 565.202 182.453 561.905 183.527C559.623 184.27 557.567 185.921 555.736 188.481C553.864 190.913 552.558 193.792 551.818 197.118L557.938 254.02ZM564.7 318.705L538.214 334.903L521.234 174.896L548.618 165.979L550.22 181.232C552.523 177.538 555.285 174.394 558.508 171.803C561.73 169.211 565.497 167.213 569.807 165.809C577.414 163.332 584.008 163.989 589.59 167.78C595.172 171.572 599.573 178.412 602.793 188.301C609.11 207.698 610.149 225.098 605.91 240.501C601.798 255.863 592.452 265.918 577.872 270.665C573.815 271.987 570.206 272.531 567.046 272.298C564.012 272.024 561.489 270.952 559.478 269.083L564.7 318.705ZM605.056 155.382L611.332 153.338L608.491 125.237L635.398 112.268L638.717 144.42L650.127 140.705L651.083 148.807L639.672 152.523L646.08 213.537C646.198 214.761 646.359 215.9 646.563 216.956C646.725 217.885 646.971 218.856 647.301 219.87C648.127 222.406 649.296 224.059 650.809 224.828C652.407 225.429 654.6 225.276 657.39 224.368C660.94 223.212 663.804 220.596 665.982 216.521C668.12 212.32 669.144 207.499 669.055 202.059L677.042 199.458C676.742 212.316 674.14 222.839 669.234 231.027C664.328 239.216 657.438 244.755 648.564 247.645C642.224 249.709 636.577 249.375 631.62 246.642C626.749 243.741 623.137 238.677 620.784 231.451C620.247 229.803 619.775 227.923 619.368 225.812C618.92 223.574 618.557 221.168 618.28 218.594L612.288 161.441L606.012 163.484L605.056 155.382ZM687.836 100.45C689.198 104.634 688.833 108.679 686.74 112.586C684.773 116.451 681.698 119.065 677.514 120.428C673.331 121.79 669.306 121.488 665.441 119.522C661.575 117.555 658.961 114.48 657.599 110.297C656.236 106.113 656.538 102.088 658.504 98.2227C660.43 94.2304 663.484 91.553 667.668 90.1906C671.851 88.8281 675.897 89.1935 679.804 91.2866C683.796 93.2117 686.473 96.2661 687.836 100.45ZM671.483 214.94C670.947 213.292 670.475 211.412 670.068 209.301C669.62 207.064 669.257 204.658 668.979 202.084L662.032 136.828L689.416 127.91L696.78 197.027C696.898 198.25 697.059 199.39 697.262 200.446C697.424 201.374 697.671 202.346 698.001 203.36C698.827 205.896 699.996 207.548 701.509 208.318C703.107 208.919 705.3 208.766 708.089 207.857C711.639 206.701 714.503 204.086 716.682 200.011C718.819 195.809 719.844 190.989 719.755 185.549L727.742 182.948C727.442 195.806 724.839 206.329 719.934 214.517C715.028 222.705 708.138 228.244 699.263 231.134C692.924 233.199 687.276 232.864 682.32 230.131C677.449 227.23 673.837 222.167 671.483 214.94ZM718.565 191.195C716.212 183.968 714.855 175.926 714.495 167.069C714.261 158.171 715.141 149.892 717.133 142.231C719.388 133.224 723.193 125.745 728.547 119.795C733.86 113.717 740.573 109.358 748.687 106.715C756.801 104.073 763.712 104.627 769.42 108.377C775.129 112.127 779.634 119.073 782.937 129.216C783.232 129.26 783.527 129.304 783.822 129.348C784.202 129.225 784.646 129.08 785.153 128.915C789.083 127.635 793.423 125.03 798.173 121.099C802.923 117.169 807.106 112.791 810.724 107.968L814.107 112.545C811.796 117.504 808.115 122.349 803.065 127.078C798.141 131.767 792.315 135.837 785.587 139.29C789.639 156.901 789.195 172.33 784.254 185.578C779.314 198.826 770.821 207.411 758.777 211.333C748.888 214.553 740.519 214.474 733.67 211.096C726.82 207.717 721.785 201.083 718.565 191.195ZM753.986 117.82C747.9 119.802 744.134 127.83 742.688 141.903C741.367 155.934 742.503 168.465 746.095 179.495C748.036 185.454 749.991 189.304 751.961 191.047C754.057 192.748 757.007 192.979 760.81 191.74C765.501 190.213 768.7 184.964 770.406 175.995C772.24 166.985 772.101 156.653 769.989 145.001C768.09 145.199 766.49 144.808 765.19 143.829C763.975 142.683 762.996 140.968 762.253 138.686C761.469 136.277 761.295 134.02 761.731 131.915C762.167 129.81 763.192 128.004 764.804 126.497C763.23 122.523 761.603 119.897 759.926 118.621C758.375 117.303 756.395 117.036 753.986 117.82ZM854.849 156.699C854.106 154.417 853.43 151.482 852.823 147.894C852.342 144.265 851.771 138.421 851.11 130.363C850.532 122.558 849.98 116.989 849.455 113.654C848.93 110.319 848.317 107.574 847.615 105.419C846.583 102.25 845.228 100.027 843.55 98.75C841.872 97.4735 839.892 97.2068 837.61 97.9499C834.567 98.9408 832.231 101.454 830.601 105.491C829.056 109.359 828.347 114.288 828.474 120.276L835.422 185.532L808.038 194.45L797.231 92.8001L824.616 83.8823L825.744 94.4523C827.758 89.8703 830.314 86.0932 833.412 83.121C836.511 80.1488 840.215 77.9608 844.526 76.5571C851.245 74.3689 857.042 74.5145 861.916 76.9938C866.79 79.4732 870.362 84.1993 872.633 91.1722C873.582 94.0881 874.337 97.6985 874.898 102.003C875.544 106.14 876.194 112.659 876.85 121.56C877.307 128.563 877.716 133.478 878.076 136.305C878.435 139.133 878.904 141.434 879.482 143.209C880.349 145.871 881.644 147.693 883.366 148.675C885.046 149.53 887.155 149.544 889.69 148.719C892.86 147.687 895.235 145.721 896.815 142.823C898.395 139.924 899.528 134.577 900.215 126.782L908.202 124.181C907.985 137.292 905.91 147.714 901.977 155.445C898.171 163.135 892.274 168.28 884.287 170.881C877.187 173.193 871.053 173.087 865.884 170.564C860.674 167.913 856.996 163.292 854.849 156.699Z" fill="#3A270F"/>
</g>
<defs>
<clipPath id="clip0_29_230">
<rect width="1920" height="1080" fill="white"/>
</clipPath>
</defs>
</svg>
